<svg width="166" height="44" viewBox="0 0 166 44" fill="none" xmlns="http://www.w3.org/2000/svg">
<path d="M15.2 14.32H9.28V21.24C9.28 22.6 10.12 23.24 11.88 23.24H14.8V29H11.36C6.96 29 4.68 26.88 4.68 22.64V14.32H0.720001V8.60001H4.68V3.88001L9.28 2.60001V8.60001H15.2V14.32Z" fill="#665B5B"/>
<path d="M34.2222 8.60001H38.7822V29H34.2222V24.92C32.7022 27.72 30.1022 29.48 26.7822 29.48C21.1822 29.48 16.9422 24.88 16.9422 18.8C16.9422 12.72 21.1822 8.12001 26.7822 8.12001C30.1022 8.12001 32.7022 9.88001 34.2222 12.68V8.60001ZM27.9422 23.64C31.5422 23.64 34.2222 21.56 34.2222 18.8C34.2222 16.04 31.5422 13.96 27.9422 13.96C24.3422 13.96 21.7022 16.04 21.7022 18.8C21.7022 21.56 24.3422 23.64 27.9422 23.64Z" fill="#665B5B"/>
<path d="M51.5337 29.48C46.0937 29.48 42.1738 26.2 42.1738 22.12H46.6538C46.6538 23.4 48.7338 24.36 51.6138 24.36C54.4538 24.36 56.4137 23.64 56.4137 22.64C56.4137 21.56 53.9738 21.16 50.3338 20.72C46.2138 20.24 42.4938 18.52 42.4938 14.6C42.4938 10.36 46.6538 8.12001 51.4938 8.12001C56.6938 8.12001 60.5737 11.24 60.5737 15.2H56.0537C56.0537 14.08 54.0538 13.24 51.4538 13.24C48.8138 13.24 47.0137 13.88 47.0137 14.8C47.0137 15.76 49.2537 16.28 53.0537 16.72C56.9337 17.16 60.8938 18.68 60.8938 22.72C60.8938 27.08 56.6937 29.48 51.5337 29.48Z" fill="#665B5B"/>
<path d="M78.5922 29L71.8322 21.08L68.8722 23.24V29H64.3122V0.200012H68.8722V15.6H69.7522L76.6322 8.60001H84.2722L75.4722 17.88L84.5122 29H78.5922Z" fill="#665B5B"/>
<path d="M90.16 20.2C90.16 15.96 92.4 13.8 96.84 13.8H100.2V19.52H97.28C95.52 19.52 94.72 20.2 94.72 21.64V22.6H100.2V28.32H94.72V43H90.16V28.32H86V22.6H90.16V20.2ZM103.48 14.2H108.04V43H103.48V14.2Z" fill="#665B5B"/>
<path d="M122.472 43.48C116.192 43.48 111.472 38.88 111.472 32.8C111.472 26.72 116.192 22.12 122.472 22.12C128.752 22.12 133.472 26.72 133.472 32.8C133.472 38.88 128.752 43.48 122.472 43.48ZM122.472 37.64C126.072 37.64 128.712 35.56 128.712 32.8C128.712 30.04 126.072 27.96 122.472 27.96C118.872 27.96 116.192 30.04 116.192 32.8C116.192 35.56 118.872 37.64 122.472 37.64Z" fill="#665B5B"/>
<path d="M140.356 43L133.716 22.6H138.396L142.756 35.16H143.476L147.396 22.6H151.636L155.556 35.16H156.196L160.596 22.6H165.756L159.116 43H153.796L150.196 30.84H149.316L145.676 43H140.356Z" fill="#665B5B"/>
</svg>
